<svg width="920" height="1750" xmlns="http://www.w3.org/2000/svg" style="vector-effect: non-scaling-stroke;" stroke="null">


 <g stroke="null">
  <title stroke="null">Layer 1</title>
  <path stroke="null" id="svg_1" fill=" rgb(128, 0, 128)" d="m889.72,458.878406l-2.91,-0.29465l-364.39,111.15776l-0.7,-0.35358l-0.51,0.043215l-94.77,-177.379405l-32.51,-6.187654l-16.73,-3.186151l0,0.267149l-1.46,0l0,-0.546085l-1.89,-0.361438l-112.41,-21.39946l-0.29,0.404653l-1.41,-0.145361l0.37,-0.514656l-34.14,-6.498019l-98.56,-18.763323l-0.59,0.318222l-1.16,-0.345723l0.42,-0.223934l-114.65,-21.831614l-0.25,0.078573l-0.9,-0.451797l102.87,-31.421495l0.08,-0.039287l0.02,0.007857l116.68,-35.640885l-0.18,-0.133575l1.3,-0.259292l0.05,0.035358l100.5,-30.69862l-0.07,-0.125717l0.65,-0.055001l42.3,-12.921392l-0.15,-21.426961l-0.59,0.113931l-0.64,-0.514656l1.23,-0.23572l-0.01,-1.783616l-0.33,-48.114409l-0.99,0.070716l-0.28,-0.5618l1.27,-0.090359l-0.4,-57.943939l-0.87,-0.062859l0.28,-0.5618l0.58,0.039287l-0.35,-50.082672l-0.13,-0.023572l0.64,-0.514656l116.23,22.424843l0.73,0.074645l-0.04,0.055001l132.63,25.579564l0.33,-0.17679l1.16,0.345723l-0.16,0.086431l114.21,22.028047l0.45,-0.137503l0.72,0.365366l47.89,9.236301l2.76,-0.534299l0.56,1.811116l-3.32,-0.640373l-216.37,41.726393l-195.57,59.735412l0.66,94.268412l51.12,95.690591l222.53,42.362838l236.23,23.93738l2.27,-0.695374m-512.96,-278.189051l17.25,-3.327583l36.13,-50.188746l-53.73,3.795094l0.35,49.721235zm175.2,-72.401441l38.19,-20.507652l-123.83,-8.749146l-34.13,47.411177l98.99,-6.996959l20.78,-11.15742zm-18.7,11.015988l151.34,-10.693837l37.63,-11.491357l-130.48,-9.220586l-58.49,31.40578zm-228.92,182.608463l-2.36,-1.760044l-44.18,-32.914389l-74.34,39.919206l40.78,14.323927l52.69,18.50796l27.41,-38.07666zm-26.2,38.504885l56.95,20.008711l41.56,14.598934l-0.13,-19.340837l-71.19,-53.037031l-27.19,37.770224zm26.78,-39.306333l41.93,-58.242518l-9.74,-18.225095l-78.35,42.079974l46.16,34.38764zm0.98,0.734661l9.55,7.118748l61.05,45.48613l-0.39,-56.808554l-16.9,-31.637571l-11.71,-21.925902l-41.6,57.767149zm70.27,-205.052949l0.23,33.594049l54.17,-3.826524l34.29,-47.627254l-88.87,-6.278013l0.18,24.137742zm55.57,30.266466l-17.88,24.833117l-18.09,25.127767l44.01,-8.485925l90.15,-48.412988l-98.19,6.938029zm-143.02,239.566307l87.99,16.751845l-0.05,-7.578402l-91.37,-32.101154l-7.59,-2.663638l-14.88,20.66087l25.9,4.93048zm-113.5,-21.607679l86.26,16.421836l15,-20.833732l-93.89,-32.981176l-53.34,28.643926l45.97,8.749146zm-61.08,-61.444383l-100.47,30.686834l55.69,10.603478l58.56,11.149563l53.58,-28.773572l-34.83,-12.233875l-32.53,-11.432427zm117.44,-35.868748l-116.27,35.515168l63.02,22.141978l4.03,1.41825l74.67,-40.103853l-7.47,-5.566924l-17.98,-13.404619zm101.32,-30.946126l-100.15,30.588617l25.25,18.810467l78.71,-42.26855l-1.71,-3.197937l-2.1,-3.932598zm1.28,-0.392867l2.02,3.787237l1.66,3.111506l34.65,-18.610105l-38.33,11.711362zm4.09,7.653047l9.43,17.659367l26.67,-37.047349l-36.1,19.387981zm10.08,18.869397l27.74,51.921289l-0.62,-89.589368l-27.12,37.668078zm27.31,-220.72441l0.35,49.901954l89.27,6.309442l24.61,-34.17942l-114.23,-22.031976zm115.55,22.287339l-22.26,30.918625l-2.24,3.107577l124.39,8.788433l10.23,-5.496208l22.04,-11.833151l-132.16,-25.485276zm133.49,25.744568l-12.29,6.600164l-19.71,10.587763l131.07,9.263801l14.73,-4.498326l-113.8,-21.953402zm115.26,22.228409l-13.3,4.062244l-0.96,0.290722l58.14,4.109388l-43.88,-8.462353zm-15.81,4.828334l-25.33,7.735549l-11.14,3.402227l97.03,-6.855527l-60.56,-4.282249zm59.7,4.926551l-98.64,6.969459l-107.06,32.698312l205.7,-39.667771zm-151.21,22.299125l49.48,-15.11359l-150.1,10.607406l-89.41,48.016192l129.1,-24.895975l60.93,-18.614034zm-66.62,20.346577l-125.28,24.161314l-45.94,24.672041l-14.96,8.030199l186.18,-56.863555zm-139.75,30.965769l11.65,-6.25837l-42.69,8.23449l-13.66,18.975471l-3.58,4.977624l48.28,-25.929215zm-32.8,2.313986l-16.71,3.221509l0.01,1.854332l0.12,17.94616l16.58,-23.022zm-15.3,205.547962l21.37,4.070101l24.14,4.596543l-45.56,-16.005397l0.05,7.338754zm-0.06,-8.112701l34.83,12.237804l12.57,4.415824l-47.53,-35.413022l0.13,18.759394zm-0.52,-75.131866l0.38,55.131012l48.29,35.982679l-48.67,-91.113691zm429.66,183.629917l75.8,-23.124146l-28.56,4.506183l-25.6,4.038672l14.96,2.848285l-0.64,0.514656l-16.16,-3.076148l-124.76,19.682632l40.56,14.249282l64.4,-19.639416zm-283.86,-20.154072l58.88,43.867518l52.71,-8.316992l64.61,-10.194896l-75.11,-26.38887l-101.09,1.03324zm99.49,-1.587182l-115.78,-40.67351l-46.8,-4.741903l62.33,46.436867l7.06,-0.070716l93.19,-0.950738zm78.22,26.707092l124.19,-19.592272l-42.89,-8.163774l-155.8,1.587182l74.5,26.168864zm-20.44,33.64905l61.03,-18.617962l-40.9,-14.367143l-117.85,18.590462l42.09,31.358636l55.63,-16.963993zm-157.22,47.961191l1.83,-0.557871l98.6,-30.07789l-42.28,-31.503997l-84.25,13.290687l26.1,48.84907zm-26.4,-49.418727l83.87,-13.231757l-59.14,-44.063951l-55.04,0.5618l30.31,56.733909zm-30.62,-57.303566l54.58,-0.557871l-62.61,-46.649016l-18.03,-1.826831l0.36,-0.553942l16.74,1.697185l-27.63,-20.586226l36.59,68.476701zm-7.04,-47.69797l45.35,4.596543l-74.14,-26.043147l28.79,21.446604zm-26.96,-21.57625l75.38,26.483158l136.26,13.809272l-211.64,-40.292429zm218.3,41.557461l-140.54,-14.241425l114.83,40.339573l154.53,-1.575396l-128.82,-24.522752zm7.16,0.726804l124.84,23.768447l51.97,-0.53037l47.7,-0.487155l-224.51,-22.750922zm127.7,24.310604l41.54,7.908411l56.45,-8.906293l-97.99,0.997882z"/>
 </g>
</svg>